<?xml version="1.0" encoding="utf-8" standalone="no"?>
<!DOCTYPE svg PUBLIC "-//W3C//DTD SVG 1.1//EN"
  "http://www.w3.org/Graphics/SVG/1.1/DTD/svg11.dtd">
<!-- Created with matplotlib (http://matplotlib.org/) -->
<svg height="360pt" version="1.1" viewBox="0 0 720 360" width="720pt" xmlns="http://www.w3.org/2000/svg" xmlns:xlink="http://www.w3.org/1999/xlink">
 <defs>
  <style type="text/css">
*{stroke-linecap:butt;stroke-linejoin:round;}
  </style>
 </defs>
 <g id="figure_1">
  <g id="patch_1">
   <path d="M 0 360 
L 720 360 
L 720 0 
L 0 0 
z
" style="fill:#ffffff;"/>
  </g>
  <g id="axes_1">
   <g id="patch_2">
    <path d="M 90 315 
L 343.636364 315 
L 343.636364 43.2 
L 90 43.2 
z
" style="fill:#ffffff;"/>
   </g>
   <g id="PathCollection_1">
    <defs>
     <path d="M 0 1.118034 
C 0.296506 1.118034 0.580908 1.000231 0.790569 0.790569 
C 1.000231 0.580908 1.118034 0.296506 1.118034 0 
C 1.118034 -0.296506 1.000231 -0.580908 0.790569 -0.790569 
C 0.580908 -1.000231 0.296506 -1.118034 0 -1.118034 
C -0.296506 -1.118034 -0.580908 -1.000231 -0.790569 -0.790569 
C -1.000231 -0.580908 -1.118034 -0.296506 -1.118034 0 
C -1.118034 0.296506 -1.000231 0.580908 -0.790569 0.790569 
C -0.580908 1.000231 -0.296506 1.118034 0 1.118034 
z
" id="me1f75f9518" style="stroke:#000000;"/>
    </defs>
    <g clip-path="url(#p6f8dfc66b4)">
     <use style="stroke:#000000;" x="324.368777" xlink:href="#me1f75f9518" y="107.080549"/>
     <use style="stroke:#000000;" x="102.604222" xlink:href="#me1f75f9518" y="139.526564"/>
     <use style="stroke:#000000;" x="324.368777" xlink:href="#me1f75f9518" y="134.428373"/>
     <use style="stroke:#000000;" x="102.604222" xlink:href="#me1f75f9518" y="209.318809"/>
     <use style="stroke:#000000;" x="102.604222" xlink:href="#me1f75f9518" y="270.069778"/>
     <use style="stroke:#000000;" x="324.368777" xlink:href="#me1f75f9518" y="176.9062"/>
     <use style="stroke:#000000;" x="102.604222" xlink:href="#me1f75f9518" y="251.281813"/>
     <use style="stroke:#000000;" x="102.604222" xlink:href="#me1f75f9518" y="215.58677"/>
     <use style="stroke:#000000;" x="102.604222" xlink:href="#me1f75f9518" y="254.90582"/>
     <use style="stroke:#000000;" x="268.927638" xlink:href="#me1f75f9518" y="134.158464"/>
     <use style="stroke:#000000;" x="158.045361" xlink:href="#me1f75f9518" y="129.119278"/>
     <use style="stroke:#000000;" x="324.368777" xlink:href="#me1f75f9518" y="159.961684"/>
     <use style="stroke:#000000;" x="324.368777" xlink:href="#me1f75f9518" y="152.796978"/>
     <use style="stroke:#000000;" x="213.4865" xlink:href="#me1f75f9518" y="169.083789"/>
     <use style="stroke:#000000;" x="102.604222" xlink:href="#me1f75f9518" y="270.915515"/>
     <use style="stroke:#000000;" x="268.927638" xlink:href="#me1f75f9518" y="171.558987"/>
     <use style="stroke:#000000;" x="324.368777" xlink:href="#me1f75f9518" y="150.155823"/>
     <use style="stroke:#000000;" x="102.604222" xlink:href="#me1f75f9518" y="254.356803"/>
     <use style="stroke:#000000;" x="102.604222" xlink:href="#me1f75f9518" y="131.514171"/>
     <use style="stroke:#000000;" x="158.045361" xlink:href="#me1f75f9518" y="122.939378"/>
     <use style="stroke:#000000;" x="324.368777" xlink:href="#me1f75f9518" y="195.980925"/>
     <use style="stroke:#000000;" x="213.4865" xlink:href="#me1f75f9518" y="141.710445"/>
     <use style="stroke:#000000;" x="102.604222" xlink:href="#me1f75f9518" y="268.186286"/>
     <use style="stroke:#000000;" x="324.368777" xlink:href="#me1f75f9518" y="106.921474"/>
     <use style="stroke:#000000;" x="268.927638" xlink:href="#me1f75f9518" y="120.371497"/>
     <use style="stroke:#000000;" x="158.045361" xlink:href="#me1f75f9518" y="226.924834"/>
     <use style="stroke:#000000;" x="102.604222" xlink:href="#me1f75f9518" y="192.740763"/>
     <use style="stroke:#000000;" x="324.368777" xlink:href="#me1f75f9518" y="130.397538"/>
     <use style="stroke:#000000;" x="324.368777" xlink:href="#me1f75f9518" y="115.951171"/>
     <use style="stroke:#000000;" x="213.4865" xlink:href="#me1f75f9518" y="161.603072"/>
     <use style="stroke:#000000;" x="102.604222" xlink:href="#me1f75f9518" y="236.868178"/>
     <use style="stroke:#000000;" x="324.368777" xlink:href="#me1f75f9518" y="170.677608"/>
     <use style="stroke:#000000;" x="268.927638" xlink:href="#me1f75f9518" y="130.830358"/>
     <use style="stroke:#000000;" x="102.604222" xlink:href="#me1f75f9518" y="260.871865"/>
     <use style="stroke:#000000;" x="324.368777" xlink:href="#me1f75f9518" y="138.033386"/>
     <use style="stroke:#000000;" x="158.045361" xlink:href="#me1f75f9518" y="255.656335"/>
     <use style="stroke:#000000;" x="324.368777" xlink:href="#me1f75f9518" y="129.683947"/>
     <use style="stroke:#000000;" x="102.604222" xlink:href="#me1f75f9518" y="278.856613"/>
     <use style="stroke:#000000;" x="324.368777" xlink:href="#me1f75f9518" y="130.692417"/>
     <use style="stroke:#000000;" x="213.4865" xlink:href="#me1f75f9518" y="141.083852"/>
     <use style="stroke:#000000;" x="213.4865" xlink:href="#me1f75f9518" y="248.148719"/>
     <use style="stroke:#000000;" x="324.368777" xlink:href="#me1f75f9518" y="136.476465"/>
     <use style="stroke:#000000;" x="102.604222" xlink:href="#me1f75f9518" y="251.422324"/>
     <use style="stroke:#000000;" x="102.604222" xlink:href="#me1f75f9518" y="193.862406"/>
     <use style="stroke:#000000;" x="268.927638" xlink:href="#me1f75f9518" y="142.19569"/>
     <use style="stroke:#000000;" x="324.368777" xlink:href="#me1f75f9518" y="154.260233"/>
     <use style="stroke:#000000;" x="158.045361" xlink:href="#me1f75f9518" y="218.781664"/>
     <use style="stroke:#000000;" x="213.4865" xlink:href="#me1f75f9518" y="178.254293"/>
     <use style="stroke:#000000;" x="102.604222" xlink:href="#me1f75f9518" y="161.734655"/>
     <use style="stroke:#000000;" x="102.604222" xlink:href="#me1f75f9518" y="269.887584"/>
     <use style="stroke:#000000;" x="324.368777" xlink:href="#me1f75f9518" y="167.594234"/>
     <use style="stroke:#000000;" x="268.927638" xlink:href="#me1f75f9518" y="164.476957"/>
     <use style="stroke:#000000;" x="158.045361" xlink:href="#me1f75f9518" y="264.31141"/>
    </g>
   </g>
   <g id="PathCollection_2">
    <defs>
     <path d="M 0 1.118034 
C 0.296506 1.118034 0.580908 1.000231 0.790569 0.790569 
C 1.000231 0.580908 1.118034 0.296506 1.118034 0 
C 1.118034 -0.296506 1.000231 -0.580908 0.790569 -0.790569 
C 0.580908 -1.000231 0.296506 -1.118034 0 -1.118034 
C -0.296506 -1.118034 -0.580908 -1.000231 -0.790569 -0.790569 
C -1.000231 -0.580908 -1.118034 -0.296506 -1.118034 0 
C -1.118034 0.296506 -1.000231 0.580908 -0.790569 0.790569 
C -0.580908 1.000231 -0.296506 1.118034 0 1.118034 
z
" id="m72f7908508" style="stroke:#ff0000;"/>
    </defs>
    <g clip-path="url(#p6f8dfc66b4)">
     <use style="fill:#ff0000;stroke:#ff0000;" x="109.257159" xlink:href="#m72f7908508" y="282.320157"/>
     <use style="fill:#ff0000;stroke:#ff0000;" x="109.257159" xlink:href="#m72f7908508" y="266.728416"/>
     <use style="fill:#ff0000;stroke:#ff0000;" x="109.257159" xlink:href="#m72f7908508" y="144.184304"/>
     <use style="fill:#ff0000;stroke:#ff0000;" x="109.257159" xlink:href="#m72f7908508" y="256.518693"/>
     <use style="fill:#ff0000;stroke:#ff0000;" x="331.021713" xlink:href="#m72f7908508" y="249.87968"/>
     <use style="fill:#ff0000;stroke:#ff0000;" x="109.257159" xlink:href="#m72f7908508" y="203.709521"/>
     <use style="fill:#ff0000;stroke:#ff0000;" x="109.257159" xlink:href="#m72f7908508" y="191.075461"/>
     <use style="fill:#ff0000;stroke:#ff0000;" x="331.021713" xlink:href="#m72f7908508" y="137.827224"/>
     <use style="fill:#ff0000;stroke:#ff0000;" x="109.257159" xlink:href="#m72f7908508" y="284.789261"/>
     <use style="fill:#ff0000;stroke:#ff0000;" x="331.021713" xlink:href="#m72f7908508" y="215.746574"/>
     <use style="fill:#ff0000;stroke:#ff0000;" x="331.021713" xlink:href="#m72f7908508" y="166.467117"/>
     <use style="fill:#ff0000;stroke:#ff0000;" x="109.257159" xlink:href="#m72f7908508" y="264.162313"/>
     <use style="fill:#ff0000;stroke:#ff0000;" x="331.021713" xlink:href="#m72f7908508" y="190.850752"/>
     <use style="fill:#ff0000;stroke:#ff0000;" x="220.139436" xlink:href="#m72f7908508" y="142.840989"/>
     <use style="fill:#ff0000;stroke:#ff0000;" x="275.580575" xlink:href="#m72f7908508" y="190.901701"/>
     <use style="fill:#ff0000;stroke:#ff0000;" x="109.257159" xlink:href="#m72f7908508" y="247.827583"/>
     <use style="fill:#ff0000;stroke:#ff0000;" x="164.698298" xlink:href="#m72f7908508" y="270.858769"/>
     <use style="fill:#ff0000;stroke:#ff0000;" x="331.021713" xlink:href="#m72f7908508" y="173.278833"/>
     <use style="fill:#ff0000;stroke:#ff0000;" x="109.257159" xlink:href="#m72f7908508" y="265.564294"/>
     <use style="fill:#ff0000;stroke:#ff0000;" x="109.257159" xlink:href="#m72f7908508" y="260.722166"/>
     <use style="fill:#ff0000;stroke:#ff0000;" x="275.580575" xlink:href="#m72f7908508" y="268.621351"/>
     <use style="fill:#ff0000;stroke:#ff0000;" x="331.021713" xlink:href="#m72f7908508" y="271.54261"/>
     <use style="fill:#ff0000;stroke:#ff0000;" x="164.698298" xlink:href="#m72f7908508" y="249.84573"/>
     <use style="fill:#ff0000;stroke:#ff0000;" x="220.139436" xlink:href="#m72f7908508" y="184.492414"/>
     <use style="fill:#ff0000;stroke:#ff0000;" x="331.021713" xlink:href="#m72f7908508" y="271.121801"/>
     <use style="fill:#ff0000;stroke:#ff0000;" x="331.021713" xlink:href="#m72f7908508" y="233.747539"/>
     <use style="fill:#ff0000;stroke:#ff0000;" x="275.580575" xlink:href="#m72f7908508" y="140.791464"/>
     <use style="fill:#ff0000;stroke:#ff0000;" x="164.698298" xlink:href="#m72f7908508" y="106.089148"/>
     <use style="fill:#ff0000;stroke:#ff0000;" x="220.139436" xlink:href="#m72f7908508" y="301.864024"/>
     <use style="fill:#ff0000;stroke:#ff0000;" x="275.580575" xlink:href="#m72f7908508" y="220.69376"/>
     <use style="fill:#ff0000;stroke:#ff0000;" x="109.257159" xlink:href="#m72f7908508" y="240.539694"/>
     <use style="fill:#ff0000;stroke:#ff0000;" x="164.698298" xlink:href="#m72f7908508" y="301.588727"/>
     <use style="fill:#ff0000;stroke:#ff0000;" x="220.139436" xlink:href="#m72f7908508" y="288.712643"/>
     <use style="fill:#ff0000;stroke:#ff0000;" x="275.580575" xlink:href="#m72f7908508" y="264.711601"/>
     <use style="fill:#ff0000;stroke:#ff0000;" x="331.021713" xlink:href="#m72f7908508" y="196.983249"/>
     <use style="fill:#ff0000;stroke:#ff0000;" x="331.021713" xlink:href="#m72f7908508" y="200.47441"/>
     <use style="fill:#ff0000;stroke:#ff0000;" x="331.021713" xlink:href="#m72f7908508" y="272.87933"/>
     <use style="fill:#ff0000;stroke:#ff0000;" x="164.698298" xlink:href="#m72f7908508" y="234.061603"/>
     <use style="fill:#ff0000;stroke:#ff0000;" x="220.139436" xlink:href="#m72f7908508" y="295.08504"/>
     <use style="fill:#ff0000;stroke:#ff0000;" x="220.139436" xlink:href="#m72f7908508" y="135.861094"/>
     <use style="fill:#ff0000;stroke:#ff0000;" x="109.257159" xlink:href="#m72f7908508" y="233.369822"/>
     <use style="fill:#ff0000;stroke:#ff0000;" x="331.021713" xlink:href="#m72f7908508" y="280.957239"/>
     <use style="fill:#ff0000;stroke:#ff0000;" x="275.580575" xlink:href="#m72f7908508" y="133.725712"/>
     <use style="fill:#ff0000;stroke:#ff0000;" x="109.257159" xlink:href="#m72f7908508" y="235.254247"/>
     <use style="fill:#ff0000;stroke:#ff0000;" x="164.698298" xlink:href="#m72f7908508" y="148.384098"/>
     <use style="fill:#ff0000;stroke:#ff0000;" x="275.580575" xlink:href="#m72f7908508" y="56.335976"/>
     <use style="fill:#ff0000;stroke:#ff0000;" x="109.257159" xlink:href="#m72f7908508" y="281.52455"/>
     <use style="fill:#ff0000;stroke:#ff0000;" x="164.698298" xlink:href="#m72f7908508" y="244.396639"/>
     <use style="fill:#ff0000;stroke:#ff0000;" x="220.139436" xlink:href="#m72f7908508" y="247.942937"/>
     <use style="fill:#ff0000;stroke:#ff0000;" x="331.021713" xlink:href="#m72f7908508" y="237.122383"/>
     <use style="fill:#ff0000;stroke:#ff0000;" x="331.021713" xlink:href="#m72f7908508" y="148.145497"/>
     <use style="fill:#ff0000;stroke:#ff0000;" x="331.021713" xlink:href="#m72f7908508" y="102.449276"/>
     <use style="fill:#ff0000;stroke:#ff0000;" x="220.139436" xlink:href="#m72f7908508" y="171.958236"/>
     <use style="fill:#ff0000;stroke:#ff0000;" x="275.580575" xlink:href="#m72f7908508" y="257.523761"/>
     <use style="fill:#ff0000;stroke:#ff0000;" x="331.021713" xlink:href="#m72f7908508" y="149.041636"/>
     <use style="fill:#ff0000;stroke:#ff0000;" x="164.698298" xlink:href="#m72f7908508" y="241.43232"/>
     <use style="fill:#ff0000;stroke:#ff0000;" x="331.021713" xlink:href="#m72f7908508" y="211.911983"/>
     <use style="fill:#ff0000;stroke:#ff0000;" x="331.021713" xlink:href="#m72f7908508" y="280.951264"/>
     <use style="fill:#ff0000;stroke:#ff0000;" x="275.580575" xlink:href="#m72f7908508" y="288.617484"/>
     <use style="fill:#ff0000;stroke:#ff0000;" x="331.021713" xlink:href="#m72f7908508" y="205.070948"/>
    </g>
   </g>
   <g id="matplotlib.axis_1">
    <g id="xtick_1">
     <g id="line2d_1">
      <defs>
       <path d="M 0 0 
L 0 3.5 
" id="m66c2669c50" style="stroke:#000000;stroke-width:0.8;"/>
      </defs>
      <g>
       <use style="stroke:#000000;stroke-width:0.8;" x="102.604222" xlink:href="#m66c2669c50" y="315"/>
      </g>
     </g>
     <g id="text_1">
      <!-- 0.0 -->
      <defs>
       <path d="M 31.78125 66.40625 
Q 24.171875 66.40625 20.328125 58.90625 
Q 16.5 51.421875 16.5 36.375 
Q 16.5 21.390625 20.328125 13.890625 
Q 24.171875 6.390625 31.78125 6.390625 
Q 39.453125 6.390625 43.28125 13.890625 
Q 47.125 21.390625 47.125 36.375 
Q 47.125 51.421875 43.28125 58.90625 
Q 39.453125 66.40625 31.78125 66.40625 
z
M 31.78125 74.21875 
Q 44.046875 74.21875 50.515625 64.515625 
Q 56.984375 54.828125 56.984375 36.375 
Q 56.984375 17.96875 50.515625 8.265625 
Q 44.046875 -1.421875 31.78125 -1.421875 
Q 19.53125 -1.421875 13.0625 8.265625 
Q 6.59375 17.96875 6.59375 36.375 
Q 6.59375 54.828125 13.0625 64.515625 
Q 19.53125 74.21875 31.78125 74.21875 
z
" id="DejaVuSans-30"/>
       <path d="M 10.6875 12.40625 
L 21 12.40625 
L 21 0 
L 10.6875 0 
z
" id="DejaVuSans-2e"/>
      </defs>
      <g transform="translate(94.65266 329.598437)scale(0.1 -0.1)">
       <use xlink:href="#DejaVuSans-30"/>
       <use x="63.623047" xlink:href="#DejaVuSans-2e"/>
       <use x="95.410156" xlink:href="#DejaVuSans-30"/>
      </g>
     </g>
    </g>
    <g id="xtick_2">
     <g id="line2d_2">
      <g>
       <use style="stroke:#000000;stroke-width:0.8;" x="146.957133" xlink:href="#m66c2669c50" y="315"/>
      </g>
     </g>
     <g id="text_2">
      <!-- 0.2 -->
      <defs>
       <path d="M 19.1875 8.296875 
L 53.609375 8.296875 
L 53.609375 0 
L 7.328125 0 
L 7.328125 8.296875 
Q 12.9375 14.109375 22.625 23.890625 
Q 32.328125 33.6875 34.8125 36.53125 
Q 39.546875 41.84375 41.421875 45.53125 
Q 43.3125 49.21875 43.3125 52.78125 
Q 43.3125 58.59375 39.234375 62.25 
Q 35.15625 65.921875 28.609375 65.921875 
Q 23.96875 65.921875 18.8125 64.3125 
Q 13.671875 62.703125 7.8125 59.421875 
L 7.8125 69.390625 
Q 13.765625 71.78125 18.9375 73 
Q 24.125 74.21875 28.421875 74.21875 
Q 39.75 74.21875 46.484375 68.546875 
Q 53.21875 62.890625 53.21875 53.421875 
Q 53.21875 48.921875 51.53125 44.890625 
Q 49.859375 40.875 45.40625 35.40625 
Q 44.1875 33.984375 37.640625 27.21875 
Q 31.109375 20.453125 19.1875 8.296875 
z
" id="DejaVuSans-32"/>
      </defs>
      <g transform="translate(139.005571 329.598437)scale(0.1 -0.1)">
       <use xlink:href="#DejaVuSans-30"/>
       <use x="63.623047" xlink:href="#DejaVuSans-2e"/>
       <use x="95.410156" xlink:href="#DejaVuSans-32"/>
      </g>
     </g>
    </g>
    <g id="xtick_3">
     <g id="line2d_3">
      <g>
       <use style="stroke:#000000;stroke-width:0.8;" x="191.310044" xlink:href="#m66c2669c50" y="315"/>
      </g>
     </g>
     <g id="text_3">
      <!-- 0.4 -->
      <defs>
       <path d="M 37.796875 64.3125 
L 12.890625 25.390625 
L 37.796875 25.390625 
z
M 35.203125 72.90625 
L 47.609375 72.90625 
L 47.609375 25.390625 
L 58.015625 25.390625 
L 58.015625 17.1875 
L 47.609375 17.1875 
L 47.609375 0 
L 37.796875 0 
L 37.796875 17.1875 
L 4.890625 17.1875 
L 4.890625 26.703125 
z
" id="DejaVuSans-34"/>
      </defs>
      <g transform="translate(183.358482 329.598437)scale(0.1 -0.1)">
       <use xlink:href="#DejaVuSans-30"/>
       <use x="63.623047" xlink:href="#DejaVuSans-2e"/>
       <use x="95.410156" xlink:href="#DejaVuSans-34"/>
      </g>
     </g>
    </g>
    <g id="xtick_4">
     <g id="line2d_4">
      <g>
       <use style="stroke:#000000;stroke-width:0.8;" x="235.662955" xlink:href="#m66c2669c50" y="315"/>
      </g>
     </g>
     <g id="text_4">
      <!-- 0.6 -->
      <defs>
       <path d="M 33.015625 40.375 
Q 26.375 40.375 22.484375 35.828125 
Q 18.609375 31.296875 18.609375 23.390625 
Q 18.609375 15.53125 22.484375 10.953125 
Q 26.375 6.390625 33.015625 6.390625 
Q 39.65625 6.390625 43.53125 10.953125 
Q 47.40625 15.53125 47.40625 23.390625 
Q 47.40625 31.296875 43.53125 35.828125 
Q 39.65625 40.375 33.015625 40.375 
z
M 52.59375 71.296875 
L 52.59375 62.3125 
Q 48.875 64.0625 45.09375 64.984375 
Q 41.3125 65.921875 37.59375 65.921875 
Q 27.828125 65.921875 22.671875 59.328125 
Q 17.53125 52.734375 16.796875 39.40625 
Q 19.671875 43.65625 24.015625 45.921875 
Q 28.375 48.1875 33.59375 48.1875 
Q 44.578125 48.1875 50.953125 41.515625 
Q 57.328125 34.859375 57.328125 23.390625 
Q 57.328125 12.15625 50.6875 5.359375 
Q 44.046875 -1.421875 33.015625 -1.421875 
Q 20.359375 -1.421875 13.671875 8.265625 
Q 6.984375 17.96875 6.984375 36.375 
Q 6.984375 53.65625 15.1875 63.9375 
Q 23.390625 74.21875 37.203125 74.21875 
Q 40.921875 74.21875 44.703125 73.484375 
Q 48.484375 72.75 52.59375 71.296875 
z
" id="DejaVuSans-36"/>
      </defs>
      <g transform="translate(227.711393 329.598437)scale(0.1 -0.1)">
       <use xlink:href="#DejaVuSans-30"/>
       <use x="63.623047" xlink:href="#DejaVuSans-2e"/>
       <use x="95.410156" xlink:href="#DejaVuSans-36"/>
      </g>
     </g>
    </g>
    <g id="xtick_5">
     <g id="line2d_5">
      <g>
       <use style="stroke:#000000;stroke-width:0.8;" x="280.015866" xlink:href="#m66c2669c50" y="315"/>
      </g>
     </g>
     <g id="text_5">
      <!-- 0.8 -->
      <defs>
       <path d="M 31.78125 34.625 
Q 24.75 34.625 20.71875 30.859375 
Q 16.703125 27.09375 16.703125 20.515625 
Q 16.703125 13.921875 20.71875 10.15625 
Q 24.75 6.390625 31.78125 6.390625 
Q 38.8125 6.390625 42.859375 10.171875 
Q 46.921875 13.96875 46.921875 20.515625 
Q 46.921875 27.09375 42.890625 30.859375 
Q 38.875 34.625 31.78125 34.625 
z
M 21.921875 38.8125 
Q 15.578125 40.375 12.03125 44.71875 
Q 8.5 49.078125 8.5 55.328125 
Q 8.5 64.0625 14.71875 69.140625 
Q 20.953125 74.21875 31.78125 74.21875 
Q 42.671875 74.21875 48.875 69.140625 
Q 55.078125 64.0625 55.078125 55.328125 
Q 55.078125 49.078125 51.53125 44.71875 
Q 48 40.375 41.703125 38.8125 
Q 48.828125 37.15625 52.796875 32.3125 
Q 56.78125 27.484375 56.78125 20.515625 
Q 56.78125 9.90625 50.3125 4.234375 
Q 43.84375 -1.421875 31.78125 -1.421875 
Q 19.734375 -1.421875 13.25 4.234375 
Q 6.78125 9.90625 6.78125 20.515625 
Q 6.78125 27.484375 10.78125 32.3125 
Q 14.796875 37.15625 21.921875 38.8125 
z
M 18.3125 54.390625 
Q 18.3125 48.734375 21.84375 45.5625 
Q 25.390625 42.390625 31.78125 42.390625 
Q 38.140625 42.390625 41.71875 45.5625 
Q 45.3125 48.734375 45.3125 54.390625 
Q 45.3125 60.0625 41.71875 63.234375 
Q 38.140625 66.40625 31.78125 66.40625 
Q 25.390625 66.40625 21.84375 63.234375 
Q 18.3125 60.0625 18.3125 54.390625 
z
" id="DejaVuSans-38"/>
      </defs>
      <g transform="translate(272.064303 329.598437)scale(0.1 -0.1)">
       <use xlink:href="#DejaVuSans-30"/>
       <use x="63.623047" xlink:href="#DejaVuSans-2e"/>
       <use x="95.410156" xlink:href="#DejaVuSans-38"/>
      </g>
     </g>
    </g>
    <g id="xtick_6">
     <g id="line2d_6">
      <g>
       <use style="stroke:#000000;stroke-width:0.8;" x="324.368777" xlink:href="#m66c2669c50" y="315"/>
      </g>
     </g>
     <g id="text_6">
      <!-- 1.0 -->
      <defs>
       <path d="M 12.40625 8.296875 
L 28.515625 8.296875 
L 28.515625 63.921875 
L 10.984375 60.40625 
L 10.984375 69.390625 
L 28.421875 72.90625 
L 38.28125 72.90625 
L 38.28125 8.296875 
L 54.390625 8.296875 
L 54.390625 0 
L 12.40625 0 
z
" id="DejaVuSans-31"/>
      </defs>
      <g transform="translate(316.417214 329.598437)scale(0.1 -0.1)">
       <use xlink:href="#DejaVuSans-31"/>
       <use x="63.623047" xlink:href="#DejaVuSans-2e"/>
       <use x="95.410156" xlink:href="#DejaVuSans-30"/>
      </g>
     </g>
    </g>
    <g id="text_7">
     <!-- morph -->
     <defs>
      <path d="M 52 44.1875 
Q 55.375 50.25 60.0625 53.125 
Q 64.75 56 71.09375 56 
Q 79.640625 56 84.28125 50.015625 
Q 88.921875 44.046875 88.921875 33.015625 
L 88.921875 0 
L 79.890625 0 
L 79.890625 32.71875 
Q 79.890625 40.578125 77.09375 44.375 
Q 74.3125 48.1875 68.609375 48.1875 
Q 61.625 48.1875 57.5625 43.546875 
Q 53.515625 38.921875 53.515625 30.90625 
L 53.515625 0 
L 44.484375 0 
L 44.484375 32.71875 
Q 44.484375 40.625 41.703125 44.40625 
Q 38.921875 48.1875 33.109375 48.1875 
Q 26.21875 48.1875 22.15625 43.53125 
Q 18.109375 38.875 18.109375 30.90625 
L 18.109375 0 
L 9.078125 0 
L 9.078125 54.6875 
L 18.109375 54.6875 
L 18.109375 46.1875 
Q 21.1875 51.21875 25.484375 53.609375 
Q 29.78125 56 35.6875 56 
Q 41.65625 56 45.828125 52.96875 
Q 50 49.953125 52 44.1875 
z
" id="DejaVuSans-6d"/>
      <path d="M 30.609375 48.390625 
Q 23.390625 48.390625 19.1875 42.75 
Q 14.984375 37.109375 14.984375 27.296875 
Q 14.984375 17.484375 19.15625 11.84375 
Q 23.34375 6.203125 30.609375 6.203125 
Q 37.796875 6.203125 41.984375 11.859375 
Q 46.1875 17.53125 46.1875 27.296875 
Q 46.1875 37.015625 41.984375 42.703125 
Q 37.796875 48.390625 30.609375 48.390625 
z
M 30.609375 56 
Q 42.328125 56 49.015625 48.375 
Q 55.71875 40.765625 55.71875 27.296875 
Q 55.71875 13.875 49.015625 6.21875 
Q 42.328125 -1.421875 30.609375 -1.421875 
Q 18.84375 -1.421875 12.171875 6.21875 
Q 5.515625 13.875 5.515625 27.296875 
Q 5.515625 40.765625 12.171875 48.375 
Q 18.84375 56 30.609375 56 
z
" id="DejaVuSans-6f"/>
      <path d="M 41.109375 46.296875 
Q 39.59375 47.171875 37.8125 47.578125 
Q 36.03125 48 33.890625 48 
Q 26.265625 48 22.1875 43.046875 
Q 18.109375 38.09375 18.109375 28.8125 
L 18.109375 0 
L 9.078125 0 
L 9.078125 54.6875 
L 18.109375 54.6875 
L 18.109375 46.1875 
Q 20.953125 51.171875 25.484375 53.578125 
Q 30.03125 56 36.53125 56 
Q 37.453125 56 38.578125 55.875 
Q 39.703125 55.765625 41.0625 55.515625 
z
" id="DejaVuSans-72"/>
      <path d="M 18.109375 8.203125 
L 18.109375 -20.796875 
L 9.078125 -20.796875 
L 9.078125 54.6875 
L 18.109375 54.6875 
L 18.109375 46.390625 
Q 20.953125 51.265625 25.265625 53.625 
Q 29.59375 56 35.59375 56 
Q 45.5625 56 51.78125 48.09375 
Q 58.015625 40.1875 58.015625 27.296875 
Q 58.015625 14.40625 51.78125 6.484375 
Q 45.5625 -1.421875 35.59375 -1.421875 
Q 29.59375 -1.421875 25.265625 0.953125 
Q 20.953125 3.328125 18.109375 8.203125 
z
M 48.6875 27.296875 
Q 48.6875 37.203125 44.609375 42.84375 
Q 40.53125 48.484375 33.40625 48.484375 
Q 26.265625 48.484375 22.1875 42.84375 
Q 18.109375 37.203125 18.109375 27.296875 
Q 18.109375 17.390625 22.1875 11.75 
Q 26.265625 6.109375 33.40625 6.109375 
Q 40.53125 6.109375 44.609375 11.75 
Q 48.6875 17.390625 48.6875 27.296875 
z
" id="DejaVuSans-70"/>
      <path d="M 54.890625 33.015625 
L 54.890625 0 
L 45.90625 0 
L 45.90625 32.71875 
Q 45.90625 40.484375 42.875 44.328125 
Q 39.84375 48.1875 33.796875 48.1875 
Q 26.515625 48.1875 22.3125 43.546875 
Q 18.109375 38.921875 18.109375 30.90625 
L 18.109375 0 
L 9.078125 0 
L 9.078125 75.984375 
L 18.109375 75.984375 
L 18.109375 46.1875 
Q 21.34375 51.125 25.703125 53.5625 
Q 30.078125 56 35.796875 56 
Q 45.21875 56 50.046875 50.171875 
Q 54.890625 44.34375 54.890625 33.015625 
z
" id="DejaVuSans-68"/>
     </defs>
     <g transform="translate(200.490057 343.276563)scale(0.1 -0.1)">
      <use xlink:href="#DejaVuSans-6d"/>
      <use x="97.412109" xlink:href="#DejaVuSans-6f"/>
      <use x="158.59375" xlink:href="#DejaVuSans-72"/>
      <use x="199.707031" xlink:href="#DejaVuSans-70"/>
      <use x="263.183594" xlink:href="#DejaVuSans-68"/>
     </g>
    </g>
   </g>
   <g id="matplotlib.axis_2">
    <g id="ytick_1">
     <g id="line2d_7">
      <defs>
       <path d="M 0 0 
L -3.5 0 
" id="m932f7cf83f" style="stroke:#000000;stroke-width:0.8;"/>
      </defs>
      <g>
       <use style="stroke:#000000;stroke-width:0.8;" x="90" xlink:href="#m932f7cf83f" y="269.31128"/>
      </g>
     </g>
     <g id="text_8">
      <!-- 10 -->
      <g transform="translate(70.275 273.110498)scale(0.1 -0.1)">
       <use xlink:href="#DejaVuSans-31"/>
       <use x="63.623047" xlink:href="#DejaVuSans-30"/>
      </g>
     </g>
    </g>
    <g id="ytick_2">
     <g id="line2d_8">
      <g>
       <use style="stroke:#000000;stroke-width:0.8;" x="90" xlink:href="#m932f7cf83f" y="213.857977"/>
      </g>
     </g>
     <g id="text_9">
      <!-- 20 -->
      <g transform="translate(70.275 217.657196)scale(0.1 -0.1)">
       <use xlink:href="#DejaVuSans-32"/>
       <use x="63.623047" xlink:href="#DejaVuSans-30"/>
      </g>
     </g>
    </g>
    <g id="ytick_3">
     <g id="line2d_9">
      <g>
       <use style="stroke:#000000;stroke-width:0.8;" x="90" xlink:href="#m932f7cf83f" y="158.404675"/>
      </g>
     </g>
     <g id="text_10">
      <!-- 30 -->
      <defs>
       <path d="M 40.578125 39.3125 
Q 47.65625 37.796875 51.625 33 
Q 55.609375 28.21875 55.609375 21.1875 
Q 55.609375 10.40625 48.1875 4.484375 
Q 40.765625 -1.421875 27.09375 -1.421875 
Q 22.515625 -1.421875 17.65625 -0.515625 
Q 12.796875 0.390625 7.625 2.203125 
L 7.625 11.71875 
Q 11.71875 9.328125 16.59375 8.109375 
Q 21.484375 6.890625 26.8125 6.890625 
Q 36.078125 6.890625 40.9375 10.546875 
Q 45.796875 14.203125 45.796875 21.1875 
Q 45.796875 27.640625 41.28125 31.265625 
Q 36.765625 34.90625 28.71875 34.90625 
L 20.21875 34.90625 
L 20.21875 43.015625 
L 29.109375 43.015625 
Q 36.375 43.015625 40.234375 45.921875 
Q 44.09375 48.828125 44.09375 54.296875 
Q 44.09375 59.90625 40.109375 62.90625 
Q 36.140625 65.921875 28.71875 65.921875 
Q 24.65625 65.921875 20.015625 65.03125 
Q 15.375 64.15625 9.8125 62.3125 
L 9.8125 71.09375 
Q 15.4375 72.65625 20.34375 73.4375 
Q 25.25 74.21875 29.59375 74.21875 
Q 40.828125 74.21875 47.359375 69.109375 
Q 53.90625 64.015625 53.90625 55.328125 
Q 53.90625 49.265625 50.4375 45.09375 
Q 46.96875 40.921875 40.578125 39.3125 
z
" id="DejaVuSans-33"/>
      </defs>
      <g transform="translate(70.275 162.203894)scale(0.1 -0.1)">
       <use xlink:href="#DejaVuSans-33"/>
       <use x="63.623047" xlink:href="#DejaVuSans-30"/>
      </g>
     </g>
    </g>
    <g id="ytick_4">
     <g id="line2d_10">
      <g>
       <use style="stroke:#000000;stroke-width:0.8;" x="90" xlink:href="#m932f7cf83f" y="102.951373"/>
      </g>
     </g>
     <g id="text_11">
      <!-- 40 -->
      <g transform="translate(70.275 106.750592)scale(0.1 -0.1)">
       <use xlink:href="#DejaVuSans-34"/>
       <use x="63.623047" xlink:href="#DejaVuSans-30"/>
      </g>
     </g>
    </g>
    <g id="ytick_5">
     <g id="line2d_11">
      <g>
       <use style="stroke:#000000;stroke-width:0.8;" x="90" xlink:href="#m932f7cf83f" y="47.498071"/>
      </g>
     </g>
     <g id="text_12">
      <!-- 50 -->
      <defs>
       <path d="M 10.796875 72.90625 
L 49.515625 72.90625 
L 49.515625 64.59375 
L 19.828125 64.59375 
L 19.828125 46.734375 
Q 21.96875 47.46875 24.109375 47.828125 
Q 26.265625 48.1875 28.421875 48.1875 
Q 40.625 48.1875 47.75 41.5 
Q 54.890625 34.8125 54.890625 23.390625 
Q 54.890625 11.625 47.5625 5.09375 
Q 40.234375 -1.421875 26.90625 -1.421875 
Q 22.3125 -1.421875 17.546875 -0.640625 
Q 12.796875 0.140625 7.71875 1.703125 
L 7.71875 11.625 
Q 12.109375 9.234375 16.796875 8.0625 
Q 21.484375 6.890625 26.703125 6.890625 
Q 35.15625 6.890625 40.078125 11.328125 
Q 45.015625 15.765625 45.015625 23.390625 
Q 45.015625 31 40.078125 35.4375 
Q 35.15625 39.890625 26.703125 39.890625 
Q 22.75 39.890625 18.8125 39.015625 
Q 14.890625 38.140625 10.796875 36.28125 
z
" id="DejaVuSans-35"/>
      </defs>
      <g transform="translate(70.275 51.297289)scale(0.1 -0.1)">
       <use xlink:href="#DejaVuSans-35"/>
       <use x="63.623047" xlink:href="#DejaVuSans-30"/>
      </g>
     </g>
    </g>
    <g id="text_13">
     <!-- cm/s -->
     <defs>
      <path d="M 48.78125 52.59375 
L 48.78125 44.1875 
Q 44.96875 46.296875 41.140625 47.34375 
Q 37.3125 48.390625 33.40625 48.390625 
Q 24.65625 48.390625 19.8125 42.84375 
Q 14.984375 37.3125 14.984375 27.296875 
Q 14.984375 17.28125 19.8125 11.734375 
Q 24.65625 6.203125 33.40625 6.203125 
Q 37.3125 6.203125 41.140625 7.25 
Q 44.96875 8.296875 48.78125 10.40625 
L 48.78125 2.09375 
Q 45.015625 0.34375 40.984375 -0.53125 
Q 36.96875 -1.421875 32.421875 -1.421875 
Q 20.0625 -1.421875 12.78125 6.34375 
Q 5.515625 14.109375 5.515625 27.296875 
Q 5.515625 40.671875 12.859375 48.328125 
Q 20.21875 56 33.015625 56 
Q 37.15625 56 41.109375 55.140625 
Q 45.0625 54.296875 48.78125 52.59375 
z
" id="DejaVuSans-63"/>
      <path d="M 25.390625 72.90625 
L 33.6875 72.90625 
L 8.296875 -9.28125 
L 0 -9.28125 
z
" id="DejaVuSans-2f"/>
      <path d="M 44.28125 53.078125 
L 44.28125 44.578125 
Q 40.484375 46.53125 36.375 47.5 
Q 32.28125 48.484375 27.875 48.484375 
Q 21.1875 48.484375 17.84375 46.4375 
Q 14.5 44.390625 14.5 40.28125 
Q 14.5 37.15625 16.890625 35.375 
Q 19.28125 33.59375 26.515625 31.984375 
L 29.59375 31.296875 
Q 39.15625 29.25 43.1875 25.515625 
Q 47.21875 21.78125 47.21875 15.09375 
Q 47.21875 7.46875 41.1875 3.015625 
Q 35.15625 -1.421875 24.609375 -1.421875 
Q 20.21875 -1.421875 15.453125 -0.5625 
Q 10.6875 0.296875 5.421875 2 
L 5.421875 11.28125 
Q 10.40625 8.6875 15.234375 7.390625 
Q 20.0625 6.109375 24.8125 6.109375 
Q 31.15625 6.109375 34.5625 8.28125 
Q 37.984375 10.453125 37.984375 14.40625 
Q 37.984375 18.0625 35.515625 20.015625 
Q 33.0625 21.96875 24.703125 23.78125 
L 21.578125 24.515625 
Q 13.234375 26.265625 9.515625 29.90625 
Q 5.8125 33.546875 5.8125 39.890625 
Q 5.8125 47.609375 11.28125 51.796875 
Q 16.75 56 26.8125 56 
Q 31.78125 56 36.171875 55.265625 
Q 40.578125 54.546875 44.28125 53.078125 
z
" id="DejaVuSans-73"/>
     </defs>
     <g transform="translate(64.195312 191.008594)rotate(-90)scale(0.1 -0.1)">
      <use xlink:href="#DejaVuSans-63"/>
      <use x="54.980469" xlink:href="#DejaVuSans-6d"/>
      <use x="152.392578" xlink:href="#DejaVuSans-2f"/>
      <use x="186.083984" xlink:href="#DejaVuSans-73"/>
     </g>
    </g>
   </g>
   <g id="line2d_12">
    <path clip-path="url(#p6f8dfc66b4)" d="M 102.604222 228.439262 
L 158.045361 202.955483 
L 213.4865 173.314028 
L 268.927638 143.931992 
L 324.368777 144.588177 
" style="fill:none;stroke:#000000;stroke-linecap:square;stroke-width:1.5;"/>
   </g>
   <g id="line2d_13">
    <path clip-path="url(#p6f8dfc66b4)" d="M 102.604222 243.886032 
L 158.045361 224.582129 
L 213.4865 221.094672 
L 268.927638 202.435868 
L 324.368777 209.822467 
" style="fill:none;stroke:#ff0000;stroke-linecap:square;stroke-width:1.5;"/>
   </g>
   <g id="patch_3">
    <path d="M 90 315 
L 90 43.2 
" style="fill:none;stroke:#000000;stroke-linecap:square;stroke-linejoin:miter;stroke-width:0.8;"/>
   </g>
   <g id="patch_4">
    <path d="M 90 315 
L 343.636364 315 
" style="fill:none;stroke:#000000;stroke-linecap:square;stroke-linejoin:miter;stroke-width:0.8;"/>
   </g>
   <g id="text_14">
    <!-- zone 0 speed -->
    <defs>
     <path d="M 5.515625 54.6875 
L 48.1875 54.6875 
L 48.1875 46.484375 
L 14.40625 7.171875 
L 48.1875 7.171875 
L 48.1875 0 
L 4.296875 0 
L 4.296875 8.203125 
L 38.09375 47.515625 
L 5.515625 47.515625 
z
" id="DejaVuSans-7a"/>
     <path d="M 54.890625 33.015625 
L 54.890625 0 
L 45.90625 0 
L 45.90625 32.71875 
Q 45.90625 40.484375 42.875 44.328125 
Q 39.84375 48.1875 33.796875 48.1875 
Q 26.515625 48.1875 22.3125 43.546875 
Q 18.109375 38.921875 18.109375 30.90625 
L 18.109375 0 
L 9.078125 0 
L 9.078125 54.6875 
L 18.109375 54.6875 
L 18.109375 46.1875 
Q 21.34375 51.125 25.703125 53.5625 
Q 30.078125 56 35.796875 56 
Q 45.21875 56 50.046875 50.171875 
Q 54.890625 44.34375 54.890625 33.015625 
z
" id="DejaVuSans-6e"/>
     <path d="M 56.203125 29.59375 
L 56.203125 25.203125 
L 14.890625 25.203125 
Q 15.484375 15.921875 20.484375 11.0625 
Q 25.484375 6.203125 34.421875 6.203125 
Q 39.59375 6.203125 44.453125 7.46875 
Q 49.3125 8.734375 54.109375 11.28125 
L 54.109375 2.78125 
Q 49.265625 0.734375 44.1875 -0.34375 
Q 39.109375 -1.421875 33.890625 -1.421875 
Q 20.796875 -1.421875 13.15625 6.1875 
Q 5.515625 13.8125 5.515625 26.8125 
Q 5.515625 40.234375 12.765625 48.109375 
Q 20.015625 56 32.328125 56 
Q 43.359375 56 49.78125 48.890625 
Q 56.203125 41.796875 56.203125 29.59375 
z
M 47.21875 32.234375 
Q 47.125 39.59375 43.09375 43.984375 
Q 39.0625 48.390625 32.421875 48.390625 
Q 24.90625 48.390625 20.390625 44.140625 
Q 15.875 39.890625 15.1875 32.171875 
z
" id="DejaVuSans-65"/>
     <path id="DejaVuSans-20"/>
     <path d="M 45.40625 46.390625 
L 45.40625 75.984375 
L 54.390625 75.984375 
L 54.390625 0 
L 45.40625 0 
L 45.40625 8.203125 
Q 42.578125 3.328125 38.25 0.953125 
Q 33.9375 -1.421875 27.875 -1.421875 
Q 17.96875 -1.421875 11.734375 6.484375 
Q 5.515625 14.40625 5.515625 27.296875 
Q 5.515625 40.1875 11.734375 48.09375 
Q 17.96875 56 27.875 56 
Q 33.9375 56 38.25 53.625 
Q 42.578125 51.265625 45.40625 46.390625 
z
M 14.796875 27.296875 
Q 14.796875 17.390625 18.875 11.75 
Q 22.953125 6.109375 30.078125 6.109375 
Q 37.203125 6.109375 41.296875 11.75 
Q 45.40625 17.390625 45.40625 27.296875 
Q 45.40625 37.203125 41.296875 42.84375 
Q 37.203125 48.484375 30.078125 48.484375 
Q 22.953125 48.484375 18.875 42.84375 
Q 14.796875 37.203125 14.796875 27.296875 
z
" id="DejaVuSans-64"/>
    </defs>
    <g transform="translate(176.744744 37.2)scale(0.12 -0.12)">
     <use xlink:href="#DejaVuSans-7a"/>
     <use x="52.490234" xlink:href="#DejaVuSans-6f"/>
     <use x="113.671875" xlink:href="#DejaVuSans-6e"/>
     <use x="177.050781" xlink:href="#DejaVuSans-65"/>
     <use x="238.574219" xlink:href="#DejaVuSans-20"/>
     <use x="270.361328" xlink:href="#DejaVuSans-30"/>
     <use x="333.984375" xlink:href="#DejaVuSans-20"/>
     <use x="365.771484" xlink:href="#DejaVuSans-73"/>
     <use x="417.871094" xlink:href="#DejaVuSans-70"/>
     <use x="481.347656" xlink:href="#DejaVuSans-65"/>
     <use x="542.871094" xlink:href="#DejaVuSans-65"/>
     <use x="604.394531" xlink:href="#DejaVuSans-64"/>
    </g>
   </g>
  </g>
  <g id="axes_2">
   <g id="patch_5">
    <path d="M 394.363636 315 
L 648 315 
L 648 43.2 
L 394.363636 43.2 
z
" style="fill:#ffffff;"/>
   </g>
   <g id="PathCollection_3">
    <g clip-path="url(#pb227ce08e7)">
     <use style="stroke:#000000;" x="628.732413" xlink:href="#me1f75f9518" y="269.40805"/>
     <use style="stroke:#000000;" x="406.967859" xlink:href="#me1f75f9518" y="119.015828"/>
     <use style="stroke:#000000;" x="628.732413" xlink:href="#me1f75f9518" y="268.592719"/>
     <use style="stroke:#000000;" x="406.967859" xlink:href="#me1f75f9518" y="124.414036"/>
     <use style="stroke:#000000;" x="406.967859" xlink:href="#me1f75f9518" y="174.734303"/>
     <use style="stroke:#000000;" x="628.732413" xlink:href="#me1f75f9518" y="277.974667"/>
     <use style="stroke:#000000;" x="406.967859" xlink:href="#me1f75f9518" y="163.30442"/>
     <use style="stroke:#000000;" x="406.967859" xlink:href="#me1f75f9518" y="180.477046"/>
     <use style="stroke:#000000;" x="406.967859" xlink:href="#me1f75f9518" y="201.199064"/>
     <use style="stroke:#000000;" x="573.291275" xlink:href="#me1f75f9518" y="255.88113"/>
     <use style="stroke:#000000;" x="462.408997" xlink:href="#me1f75f9518" y="269.434303"/>
     <use style="stroke:#000000;" x="628.732413" xlink:href="#me1f75f9518" y="277.951109"/>
     <use style="stroke:#000000;" x="628.732413" xlink:href="#me1f75f9518" y="287.795073"/>
     <use style="stroke:#000000;" x="517.850136" xlink:href="#me1f75f9518" y="278.971559"/>
     <use style="stroke:#000000;" x="406.967859" xlink:href="#me1f75f9518" y="150.241579"/>
     <use style="stroke:#000000;" x="573.291275" xlink:href="#me1f75f9518" y="263.030645"/>
     <use style="stroke:#000000;" x="628.732413" xlink:href="#me1f75f9518" y="228.410943"/>
     <use style="stroke:#000000;" x="406.967859" xlink:href="#me1f75f9518" y="92.72285"/>
     <use style="stroke:#000000;" x="406.967859" xlink:href="#me1f75f9518" y="115.68783"/>
     <use style="stroke:#000000;" x="628.732413" xlink:href="#me1f75f9518" y="285.451539"/>
     <use style="stroke:#000000;" x="517.850136" xlink:href="#me1f75f9518" y="226.361716"/>
     <use style="stroke:#000000;" x="406.967859" xlink:href="#me1f75f9518" y="189.706361"/>
     <use style="stroke:#000000;" x="628.732413" xlink:href="#me1f75f9518" y="288.174894"/>
     <use style="stroke:#000000;" x="573.291275" xlink:href="#me1f75f9518" y="273.436081"/>
     <use style="stroke:#000000;" x="462.408997" xlink:href="#me1f75f9518" y="93.723155"/>
     <use style="stroke:#000000;" x="406.967859" xlink:href="#me1f75f9518" y="231.705188"/>
     <use style="stroke:#000000;" x="628.732413" xlink:href="#me1f75f9518" y="273.448576"/>
     <use style="stroke:#000000;" x="628.732413" xlink:href="#me1f75f9518" y="193.429011"/>
     <use style="stroke:#000000;" x="517.850136" xlink:href="#me1f75f9518" y="294.131619"/>
     <use style="stroke:#000000;" x="406.967859" xlink:href="#me1f75f9518" y="136.264977"/>
     <use style="stroke:#000000;" x="628.732413" xlink:href="#me1f75f9518" y="265.646111"/>
     <use style="stroke:#000000;" x="573.291275" xlink:href="#me1f75f9518" y="194.407258"/>
     <use style="stroke:#000000;" x="406.967859" xlink:href="#me1f75f9518" y="152.912803"/>
     <use style="stroke:#000000;" x="628.732413" xlink:href="#me1f75f9518" y="282.950984"/>
     <use style="stroke:#000000;" x="462.408997" xlink:href="#me1f75f9518" y="120.216971"/>
     <use style="stroke:#000000;" x="628.732413" xlink:href="#me1f75f9518" y="286.465108"/>
     <use style="stroke:#000000;" x="406.967859" xlink:href="#me1f75f9518" y="166.102208"/>
     <use style="stroke:#000000;" x="628.732413" xlink:href="#me1f75f9518" y="281.582158"/>
     <use style="stroke:#000000;" x="517.850136" xlink:href="#me1f75f9518" y="293.4956"/>
     <use style="stroke:#000000;" x="517.850136" xlink:href="#me1f75f9518" y="267.489408"/>
     <use style="stroke:#000000;" x="628.732413" xlink:href="#me1f75f9518" y="234.700033"/>
     <use style="stroke:#000000;" x="406.967859" xlink:href="#me1f75f9518" y="94.528148"/>
     <use style="stroke:#000000;" x="406.967859" xlink:href="#me1f75f9518" y="56.132481"/>
     <use style="stroke:#000000;" x="573.291275" xlink:href="#me1f75f9518" y="284.278941"/>
     <use style="stroke:#000000;" x="628.732413" xlink:href="#me1f75f9518" y="228.20097"/>
     <use style="stroke:#000000;" x="462.408997" xlink:href="#me1f75f9518" y="135.764839"/>
     <use style="stroke:#000000;" x="517.850136" xlink:href="#me1f75f9518" y="283.105375"/>
     <use style="stroke:#000000;" x="406.967859" xlink:href="#me1f75f9518" y="164.653187"/>
     <use style="stroke:#000000;" x="406.967859" xlink:href="#me1f75f9518" y="199.291332"/>
     <use style="stroke:#000000;" x="628.732413" xlink:href="#me1f75f9518" y="287.706142"/>
     <use style="stroke:#000000;" x="573.291275" xlink:href="#me1f75f9518" y="266.474377"/>
     <use style="stroke:#000000;" x="462.408997" xlink:href="#me1f75f9518" y="111.857539"/>
    </g>
   </g>
   <g id="PathCollection_4">
    <g clip-path="url(#pb227ce08e7)">
     <use style="fill:#ff0000;stroke:#ff0000;" x="413.620795" xlink:href="#m72f7908508" y="101.278294"/>
     <use style="fill:#ff0000;stroke:#ff0000;" x="413.620795" xlink:href="#m72f7908508" y="137.788396"/>
     <use style="fill:#ff0000;stroke:#ff0000;" x="413.620795" xlink:href="#m72f7908508" y="184.894287"/>
     <use style="fill:#ff0000;stroke:#ff0000;" x="413.620795" xlink:href="#m72f7908508" y="183.208097"/>
     <use style="fill:#ff0000;stroke:#ff0000;" x="413.620795" xlink:href="#m72f7908508" y="126.683569"/>
     <use style="fill:#ff0000;stroke:#ff0000;" x="635.38535" xlink:href="#m72f7908508" y="272.764439"/>
     <use style="fill:#ff0000;stroke:#ff0000;" x="413.620795" xlink:href="#m72f7908508" y="121.1633"/>
     <use style="fill:#ff0000;stroke:#ff0000;" x="635.38535" xlink:href="#m72f7908508" y="193.490937"/>
     <use style="fill:#ff0000;stroke:#ff0000;" x="635.38535" xlink:href="#m72f7908508" y="213.094999"/>
     <use style="fill:#ff0000;stroke:#ff0000;" x="413.620795" xlink:href="#m72f7908508" y="258.950744"/>
     <use style="fill:#ff0000;stroke:#ff0000;" x="635.38535" xlink:href="#m72f7908508" y="267.021005"/>
     <use style="fill:#ff0000;stroke:#ff0000;" x="524.503073" xlink:href="#m72f7908508" y="288.913057"/>
     <use style="fill:#ff0000;stroke:#ff0000;" x="579.944211" xlink:href="#m72f7908508" y="246.721902"/>
     <use style="fill:#ff0000;stroke:#ff0000;" x="413.620795" xlink:href="#m72f7908508" y="212.42747"/>
     <use style="fill:#ff0000;stroke:#ff0000;" x="469.061934" xlink:href="#m72f7908508" y="278.054321"/>
     <use style="fill:#ff0000;stroke:#ff0000;" x="635.38535" xlink:href="#m72f7908508" y="231.578408"/>
     <use style="fill:#ff0000;stroke:#ff0000;" x="413.620795" xlink:href="#m72f7908508" y="122.23041"/>
     <use style="fill:#ff0000;stroke:#ff0000;" x="413.620795" xlink:href="#m72f7908508" y="88.298066"/>
     <use style="fill:#ff0000;stroke:#ff0000;" x="579.944211" xlink:href="#m72f7908508" y="264.541461"/>
     <use style="fill:#ff0000;stroke:#ff0000;" x="635.38535" xlink:href="#m72f7908508" y="240.828911"/>
     <use style="fill:#ff0000;stroke:#ff0000;" x="469.061934" xlink:href="#m72f7908508" y="149.204132"/>
     <use style="fill:#ff0000;stroke:#ff0000;" x="524.503073" xlink:href="#m72f7908508" y="291.327273"/>
     <use style="fill:#ff0000;stroke:#ff0000;" x="635.38535" xlink:href="#m72f7908508" y="277.307578"/>
     <use style="fill:#ff0000;stroke:#ff0000;" x="579.944211" xlink:href="#m72f7908508" y="214.276829"/>
     <use style="fill:#ff0000;stroke:#ff0000;" x="469.061934" xlink:href="#m72f7908508" y="140.411603"/>
     <use style="fill:#ff0000;stroke:#ff0000;" x="524.503073" xlink:href="#m72f7908508" y="202.145624"/>
     <use style="fill:#ff0000;stroke:#ff0000;" x="579.944211" xlink:href="#m72f7908508" y="162.426405"/>
     <use style="fill:#ff0000;stroke:#ff0000;" x="413.620795" xlink:href="#m72f7908508" y="117.62252"/>
     <use style="fill:#ff0000;stroke:#ff0000;" x="469.061934" xlink:href="#m72f7908508" y="267.267168"/>
     <use style="fill:#ff0000;stroke:#ff0000;" x="524.503073" xlink:href="#m72f7908508" y="268.087779"/>
     <use style="fill:#ff0000;stroke:#ff0000;" x="635.38535" xlink:href="#m72f7908508" y="159.664434"/>
     <use style="fill:#ff0000;stroke:#ff0000;" x="469.061934" xlink:href="#m72f7908508" y="116.563078"/>
     <use style="fill:#ff0000;stroke:#ff0000;" x="524.503073" xlink:href="#m72f7908508" y="174.611144"/>
     <use style="fill:#ff0000;stroke:#ff0000;" x="524.503073" xlink:href="#m72f7908508" y="217.899438"/>
     <use style="fill:#ff0000;stroke:#ff0000;" x="413.620795" xlink:href="#m72f7908508" y="59.950496"/>
     <use style="fill:#ff0000;stroke:#ff0000;" x="635.38535" xlink:href="#m72f7908508" y="209.882043"/>
     <use style="fill:#ff0000;stroke:#ff0000;" x="579.944211" xlink:href="#m72f7908508" y="215.056267"/>
     <use style="fill:#ff0000;stroke:#ff0000;" x="413.620795" xlink:href="#m72f7908508" y="67.784371"/>
     <use style="fill:#ff0000;stroke:#ff0000;" x="579.944211" xlink:href="#m72f7908508" y="278.314193"/>
     <use style="fill:#ff0000;stroke:#ff0000;" x="413.620795" xlink:href="#m72f7908508" y="126.814712"/>
     <use style="fill:#ff0000;stroke:#ff0000;" x="469.061934" xlink:href="#m72f7908508" y="139.255949"/>
     <use style="fill:#ff0000;stroke:#ff0000;" x="524.503073" xlink:href="#m72f7908508" y="237.975849"/>
     <use style="fill:#ff0000;stroke:#ff0000;" x="524.503073" xlink:href="#m72f7908508" y="282.448763"/>
     <use style="fill:#ff0000;stroke:#ff0000;" x="635.38535" xlink:href="#m72f7908508" y="205.071475"/>
     <use style="fill:#ff0000;stroke:#ff0000;" x="469.061934" xlink:href="#m72f7908508" y="121.154259"/>
     <use style="fill:#ff0000;stroke:#ff0000;" x="635.38535" xlink:href="#m72f7908508" y="165.513021"/>
     <use style="fill:#ff0000;stroke:#ff0000;" x="635.38535" xlink:href="#m72f7908508" y="301.563329"/>
    </g>
   </g>
   <g id="matplotlib.axis_3">
    <g id="xtick_7">
     <g id="line2d_14">
      <g>
       <use style="stroke:#000000;stroke-width:0.8;" x="406.967859" xlink:href="#m66c2669c50" y="315"/>
      </g>
     </g>
     <g id="text_15">
      <!-- 0.0 -->
      <g transform="translate(399.016296 329.598437)scale(0.1 -0.1)">
       <use xlink:href="#DejaVuSans-30"/>
       <use x="63.623047" xlink:href="#DejaVuSans-2e"/>
       <use x="95.410156" xlink:href="#DejaVuSans-30"/>
      </g>
     </g>
    </g>
    <g id="xtick_8">
     <g id="line2d_15">
      <g>
       <use style="stroke:#000000;stroke-width:0.8;" x="451.32077" xlink:href="#m66c2669c50" y="315"/>
      </g>
     </g>
     <g id="text_16">
      <!-- 0.2 -->
      <g transform="translate(443.369207 329.598437)scale(0.1 -0.1)">
       <use xlink:href="#DejaVuSans-30"/>
       <use x="63.623047" xlink:href="#DejaVuSans-2e"/>
       <use x="95.410156" xlink:href="#DejaVuSans-32"/>
      </g>
     </g>
    </g>
    <g id="xtick_9">
     <g id="line2d_16">
      <g>
       <use style="stroke:#000000;stroke-width:0.8;" x="495.67368" xlink:href="#m66c2669c50" y="315"/>
      </g>
     </g>
     <g id="text_17">
      <!-- 0.4 -->
      <g transform="translate(487.722118 329.598437)scale(0.1 -0.1)">
       <use xlink:href="#DejaVuSans-30"/>
       <use x="63.623047" xlink:href="#DejaVuSans-2e"/>
       <use x="95.410156" xlink:href="#DejaVuSans-34"/>
      </g>
     </g>
    </g>
    <g id="xtick_10">
     <g id="line2d_17">
      <g>
       <use style="stroke:#000000;stroke-width:0.8;" x="540.026591" xlink:href="#m66c2669c50" y="315"/>
      </g>
     </g>
     <g id="text_18">
      <!-- 0.6 -->
      <g transform="translate(532.075029 329.598437)scale(0.1 -0.1)">
       <use xlink:href="#DejaVuSans-30"/>
       <use x="63.623047" xlink:href="#DejaVuSans-2e"/>
       <use x="95.410156" xlink:href="#DejaVuSans-36"/>
      </g>
     </g>
    </g>
    <g id="xtick_11">
     <g id="line2d_18">
      <g>
       <use style="stroke:#000000;stroke-width:0.8;" x="584.379502" xlink:href="#m66c2669c50" y="315"/>
      </g>
     </g>
     <g id="text_19">
      <!-- 0.8 -->
      <g transform="translate(576.42794 329.598437)scale(0.1 -0.1)">
       <use xlink:href="#DejaVuSans-30"/>
       <use x="63.623047" xlink:href="#DejaVuSans-2e"/>
       <use x="95.410156" xlink:href="#DejaVuSans-38"/>
      </g>
     </g>
    </g>
    <g id="xtick_12">
     <g id="line2d_19">
      <g>
       <use style="stroke:#000000;stroke-width:0.8;" x="628.732413" xlink:href="#m66c2669c50" y="315"/>
      </g>
     </g>
     <g id="text_20">
      <!-- 1.0 -->
      <g transform="translate(620.780851 329.598437)scale(0.1 -0.1)">
       <use xlink:href="#DejaVuSans-31"/>
       <use x="63.623047" xlink:href="#DejaVuSans-2e"/>
       <use x="95.410156" xlink:href="#DejaVuSans-30"/>
      </g>
     </g>
    </g>
    <g id="text_21">
     <!-- morph -->
     <g transform="translate(504.853693 343.276563)scale(0.1 -0.1)">
      <use xlink:href="#DejaVuSans-6d"/>
      <use x="97.412109" xlink:href="#DejaVuSans-6f"/>
      <use x="158.59375" xlink:href="#DejaVuSans-72"/>
      <use x="199.707031" xlink:href="#DejaVuSans-70"/>
      <use x="263.183594" xlink:href="#DejaVuSans-68"/>
     </g>
    </g>
   </g>
   <g id="matplotlib.axis_4">
    <g id="ytick_6">
     <g id="line2d_20">
      <g>
       <use style="stroke:#000000;stroke-width:0.8;" x="394.363636" xlink:href="#m932f7cf83f" y="286.554588"/>
      </g>
     </g>
     <g id="text_22">
      <!-- 10 -->
      <g transform="translate(374.638636 290.353806)scale(0.1 -0.1)">
       <use xlink:href="#DejaVuSans-31"/>
       <use x="63.623047" xlink:href="#DejaVuSans-30"/>
      </g>
     </g>
    </g>
    <g id="ytick_7">
     <g id="line2d_21">
      <g>
       <use style="stroke:#000000;stroke-width:0.8;" x="394.363636" xlink:href="#m932f7cf83f" y="240.136799"/>
      </g>
     </g>
     <g id="text_23">
      <!-- 20 -->
      <g transform="translate(374.638636 243.936017)scale(0.1 -0.1)">
       <use xlink:href="#DejaVuSans-32"/>
       <use x="63.623047" xlink:href="#DejaVuSans-30"/>
      </g>
     </g>
    </g>
    <g id="ytick_8">
     <g id="line2d_22">
      <g>
       <use style="stroke:#000000;stroke-width:0.8;" x="394.363636" xlink:href="#m932f7cf83f" y="193.71901"/>
      </g>
     </g>
     <g id="text_24">
      <!-- 30 -->
      <g transform="translate(374.638636 197.518228)scale(0.1 -0.1)">
       <use xlink:href="#DejaVuSans-33"/>
       <use x="63.623047" xlink:href="#DejaVuSans-30"/>
      </g>
     </g>
    </g>
    <g id="ytick_9">
     <g id="line2d_23">
      <g>
       <use style="stroke:#000000;stroke-width:0.8;" x="394.363636" xlink:href="#m932f7cf83f" y="147.301221"/>
      </g>
     </g>
     <g id="text_25">
      <!-- 40 -->
      <g transform="translate(374.638636 151.10044)scale(0.1 -0.1)">
       <use xlink:href="#DejaVuSans-34"/>
       <use x="63.623047" xlink:href="#DejaVuSans-30"/>
      </g>
     </g>
    </g>
    <g id="ytick_10">
     <g id="line2d_24">
      <g>
       <use style="stroke:#000000;stroke-width:0.8;" x="394.363636" xlink:href="#m932f7cf83f" y="100.883432"/>
      </g>
     </g>
     <g id="text_26">
      <!-- 50 -->
      <g transform="translate(374.638636 104.682651)scale(0.1 -0.1)">
       <use xlink:href="#DejaVuSans-35"/>
       <use x="63.623047" xlink:href="#DejaVuSans-30"/>
      </g>
     </g>
    </g>
    <g id="ytick_11">
     <g id="line2d_25">
      <g>
       <use style="stroke:#000000;stroke-width:0.8;" x="394.363636" xlink:href="#m932f7cf83f" y="54.465643"/>
      </g>
     </g>
     <g id="text_27">
      <!-- 60 -->
      <g transform="translate(374.638636 58.264862)scale(0.1 -0.1)">
       <use xlink:href="#DejaVuSans-36"/>
       <use x="63.623047" xlink:href="#DejaVuSans-30"/>
      </g>
     </g>
    </g>
    <g id="text_28">
     <!-- cm/s -->
     <g transform="translate(368.558949 191.008594)rotate(-90)scale(0.1 -0.1)">
      <use xlink:href="#DejaVuSans-63"/>
      <use x="54.980469" xlink:href="#DejaVuSans-6d"/>
      <use x="152.392578" xlink:href="#DejaVuSans-2f"/>
      <use x="186.083984" xlink:href="#DejaVuSans-73"/>
     </g>
    </g>
   </g>
   <g id="line2d_26">
    <path clip-path="url(#pb227ce08e7)" d="M 406.967859 150.727425 
L 462.408997 146.199361 
L 517.850136 273.92588 
L 573.291275 256.251405 
L 628.732413 265.758123 
" style="fill:none;stroke:#000000;stroke-linecap:square;stroke-width:1.5;"/>
   </g>
   <g id="line2d_27">
    <path clip-path="url(#pb227ce08e7)" d="M 406.967859 136.363909 
L 462.408997 173.130073 
L 517.850136 245.426116 
L 573.291275 230.222843 
L 628.732413 228.148382 
" style="fill:none;stroke:#ff0000;stroke-linecap:square;stroke-width:1.5;"/>
   </g>
   <g id="patch_6">
    <path d="M 394.363636 315 
L 394.363636 43.2 
" style="fill:none;stroke:#000000;stroke-linecap:square;stroke-linejoin:miter;stroke-width:0.8;"/>
   </g>
   <g id="patch_7">
    <path d="M 394.363636 315 
L 648 315 
" style="fill:none;stroke:#000000;stroke-linecap:square;stroke-linejoin:miter;stroke-width:0.8;"/>
   </g>
   <g id="text_29">
    <!-- zone 1 speed -->
    <g transform="translate(481.108381 37.2)scale(0.12 -0.12)">
     <use xlink:href="#DejaVuSans-7a"/>
     <use x="52.490234" xlink:href="#DejaVuSans-6f"/>
     <use x="113.671875" xlink:href="#DejaVuSans-6e"/>
     <use x="177.050781" xlink:href="#DejaVuSans-65"/>
     <use x="238.574219" xlink:href="#DejaVuSans-20"/>
     <use x="270.361328" xlink:href="#DejaVuSans-31"/>
     <use x="333.984375" xlink:href="#DejaVuSans-20"/>
     <use x="365.771484" xlink:href="#DejaVuSans-73"/>
     <use x="417.871094" xlink:href="#DejaVuSans-70"/>
     <use x="481.347656" xlink:href="#DejaVuSans-65"/>
     <use x="542.871094" xlink:href="#DejaVuSans-65"/>
     <use x="604.394531" xlink:href="#DejaVuSans-64"/>
    </g>
   </g>
  </g>
 </g>
 <defs>
  <clipPath id="p6f8dfc66b4">
   <rect height="271.8" width="253.636364" x="90" y="43.2"/>
  </clipPath>
  <clipPath id="pb227ce08e7">
   <rect height="271.8" width="253.636364" x="394.363636" y="43.2"/>
  </clipPath>
 </defs>
</svg>
